# Blender v2.77 (sub 0) OBJ File: ''
# www.blender.org
mtllib city.mtl
o Line002
v 10.734200 0.068792 40.612324
v 11.003100 0.068808 -53.689777
v -15.053800 0.068808 -53.721378
v -15.322600 0.068792 40.580822
v 10.734200 -1.036508 40.612324
v 11.003100 -1.036492 -53.689777
v -15.322600 -1.036508 40.580822
v -15.053800 -1.036492 -53.721378
v 47.920200 0.068802 -21.384378
v -48.498402 0.068802 -21.653278
v -48.530701 0.068798 4.403622
v 47.887901 0.068798 4.672422
v 47.920200 -1.036498 -21.384378
v -48.498402 -1.036497 -21.653278
v 47.887901 -1.036502 4.672422
v -48.530701 -1.036502 4.403622
vt 0.0000 0.0000
vt 1.0000 1.0000
vt 0.0000 1.0000
vt 1.0000 0.0000
vt 0.0000 1.0000
vt 0.0000 0.0000
vt 1.0000 0.0000
vt 0.0000 1.0000
vt 0.0000 0.0000
vt 1.0000 0.0000
vt 0.0000 1.0000
vt 0.0000 0.0000
vt 0.0000 1.0000
vt 0.0000 0.0000
vt 1.0000 0.0000
vt 1.0000 1.0000
vt 1.0000 0.0000
vt 0.0000 0.0000
vt 1.0000 1.0000
vt 0.0000 1.0000
vt 1.0000 0.0000
vt 0.0000 1.0000
vt 0.0000 0.0000
vt 1.0000 0.0000
vt 0.0000 1.0000
vt 0.0000 0.0000
vt 1.0000 0.0000
vt 0.0000 1.0000
vt 0.0000 0.0000
vt 0.0000 1.0000
vt 0.0000 0.0000
vt 1.0000 0.0000
vt 1.0000 1.0000
vt 1.0000 0.0000
vt 1.0000 0.0000
vt 1.0000 1.0000
vt 1.0000 1.0000
vt 1.0000 1.0000
vt 1.0000 0.0000
vt 1.0000 1.0000
vt 1.0000 1.0000
vt 1.0000 1.0000
vn 0.0000 1.0000 0.0000
vn 1.0000 0.0000 0.0029
vn 0.0000 -1.0000 -0.0000
vn -1.0000 0.0000 -0.0029
vn 0.0012 0.0000 -1.0000
vn -0.0012 0.0000 1.0000
vn 0.0028 0.0000 -1.0000
vn -0.0028 0.0000 1.0000
vn -1.0000 0.0000 -0.0012
vn 1.0000 0.0000 0.0012
usemtl 20___Defaulta
s 1
f 1/1/1 3/2/1 4/3/1
f 6/4/2 1/5/2 5/6/2
f 8/7/3 5/8/3 7/9/3
f 3/10/4 7/11/4 4/12/4
f 8/7/5 2/13/5 6/14/5
f 5/6/6 1/15/6 4/16/6
f 7/9/6 5/17/6 4/16/6
f 9/18/1 11/19/1 12/20/1
f 14/21/7 9/22/7 13/23/7
f 16/24/3 13/25/3 15/26/3
f 11/27/8 15/28/8 12/29/8
f 16/24/9 10/30/9 14/31/9
f 13/23/10 9/32/10 12/33/10
f 15/26/10 13/34/10 12/33/10
f 1/1/1 2/35/1 3/2/1
f 6/4/2 2/36/2 1/5/2
f 8/7/3 6/37/3 5/8/3
f 3/10/4 8/38/4 7/11/4
f 8/7/5 3/2/5 2/13/5
f 9/18/1 10/39/1 11/19/1
f 14/21/7 10/40/7 9/22/7
f 16/24/3 14/41/3 13/25/3
f 11/27/8 16/42/8 15/28/8
f 16/24/9 11/19/9 10/30/9
