# Blender v2.78 (sub 0) OBJ File: ''
# www.blender.org
mtllib road.mtl
o road
v 2.077445 0.054787 -4.365420
v -2.085755 0.054787 -4.365421
v -2.085756 0.054785 4.365419
v 2.077445 0.054785 4.365420
v 2.077445 0.291940 -4.365418
v 2.077444 0.291938 4.365422
v -2.085756 0.291938 4.365418
v -2.085756 0.291940 -4.365420
vt 0.4606 1.0000
vt 0.9213 0.0000
vt 0.9213 1.0000
vt 0.0000 1.0000
vt 0.4606 0.0000
vt 0.4606 1.0000
vt 0.9475 0.0000
vt 0.9738 1.0000
vt 0.9475 1.0000
vt 0.9738 0.4768
vt 1.0000 0.9537
vt 0.9738 0.9537
vt 0.9475 0.0000
vt 0.9213 1.0000
vt 0.9213 0.0000
vt 0.9738 0.4768
vt 1.0000 0.0000
vt 1.0000 0.4768
vt 0.4606 0.0000
vt 0.0000 0.0000
vt 0.9738 0.0000
vt 1.0000 0.4768
vt 0.9475 1.0000
vt 0.9738 0.0000
vn -0.0000 1.0000 0.0000
vn 0.0000 -1.0000 -0.0000
vn -1.0000 -0.0000 -0.0000
vn 0.0000 -0.0000 -1.0000
vn 1.0000 0.0000 0.0000
vn -0.0000 -0.0000 1.0000
usemtl road
s 1
f 2/1/1 4/2/1 1/3/1
f 5/4/2 7/5/2 8/6/2
f 4/7/3 5/8/3 1/9/3
f 3/10/4 6/11/4 4/12/4
f 3/13/5 8/14/5 7/15/5
f 5/16/6 2/17/6 1/18/6
f 2/1/1 3/19/1 4/2/1
f 5/4/2 6/20/2 7/5/2
f 4/7/3 6/21/3 5/8/3
f 3/10/4 7/22/4 6/11/4
f 3/13/5 2/23/5 8/14/5
f 5/16/6 8/24/6 2/17/6
